<mxfile host="app.diagrams.net" modified="2022-09-16T15:01:16.993Z" agent="5.0 (Macintosh; Intel Mac OS X 10_15_7) AppleWebKit/537.36 (KHTML, like Gecko) Chrome/105.0.0.0 Safari/537.36" etag="qQ1ILzPxAV3yFSUQCpT3" version="20.3.2" type="github">
  <diagram id="C5RBs43oDa-KdzZeNtuy" name="Page-1">
    <mxGraphModel dx="1182" dy="643" grid="1" gridSize="10" guides="1" tooltips="1" connect="1" arrows="1" fold="1" page="1" pageScale="1" pageWidth="827" pageHeight="1169" math="0" shadow="0">
      <root>
        <mxCell id="WIyWlLk6GJQsqaUBKTNV-0" />
        <mxCell id="WIyWlLk6GJQsqaUBKTNV-1" parent="WIyWlLk6GJQsqaUBKTNV-0" />
        <mxCell id="JfLIkyEiIRJ4gB4TQndz-7" style="edgeStyle=orthogonalEdgeStyle;rounded=0;orthogonalLoop=1;jettySize=auto;html=1;exitX=0.5;exitY=1;exitDx=0;exitDy=0;entryX=0.5;entryY=0;entryDx=0;entryDy=0;" edge="1" parent="WIyWlLk6GJQsqaUBKTNV-1" source="WIyWlLk6GJQsqaUBKTNV-3" target="JfLIkyEiIRJ4gB4TQndz-4">
          <mxGeometry relative="1" as="geometry" />
        </mxCell>
        <mxCell id="WIyWlLk6GJQsqaUBKTNV-3" value="Start" style="rounded=1;whiteSpace=wrap;html=1;fontSize=12;glass=0;strokeWidth=1;shadow=0;" parent="WIyWlLk6GJQsqaUBKTNV-1" vertex="1">
          <mxGeometry x="70" y="52.5" width="120" height="25" as="geometry" />
        </mxCell>
        <mxCell id="WIyWlLk6GJQsqaUBKTNV-11" value="Finish" style="rounded=1;whiteSpace=wrap;html=1;fontSize=12;glass=0;strokeWidth=1;shadow=0;" parent="WIyWlLk6GJQsqaUBKTNV-1" vertex="1">
          <mxGeometry x="70" y="517.5" width="120" height="25" as="geometry" />
        </mxCell>
        <mxCell id="JfLIkyEiIRJ4gB4TQndz-6" style="edgeStyle=orthogonalEdgeStyle;rounded=0;orthogonalLoop=1;jettySize=auto;html=1;exitX=0.5;exitY=1;exitDx=0;exitDy=0;entryX=0.5;entryY=0;entryDx=0;entryDy=0;" edge="1" parent="WIyWlLk6GJQsqaUBKTNV-1" source="JfLIkyEiIRJ4gB4TQndz-4" target="JfLIkyEiIRJ4gB4TQndz-5">
          <mxGeometry relative="1" as="geometry" />
        </mxCell>
        <mxCell id="JfLIkyEiIRJ4gB4TQndz-4" value="add the label u want to create to &quot;labelmap.py&quot;" style="whiteSpace=wrap;html=1;" vertex="1" parent="WIyWlLk6GJQsqaUBKTNV-1">
          <mxGeometry x="70" y="97.5" width="120" height="60" as="geometry" />
        </mxCell>
        <mxCell id="JfLIkyEiIRJ4gB4TQndz-10" style="edgeStyle=orthogonalEdgeStyle;rounded=0;orthogonalLoop=1;jettySize=auto;html=1;exitX=0.5;exitY=1;exitDx=0;exitDy=0;entryX=0.5;entryY=0;entryDx=0;entryDy=0;" edge="1" parent="WIyWlLk6GJQsqaUBKTNV-1" source="JfLIkyEiIRJ4gB4TQndz-5" target="JfLIkyEiIRJ4gB4TQndz-8">
          <mxGeometry relative="1" as="geometry" />
        </mxCell>
        <mxCell id="JfLIkyEiIRJ4gB4TQndz-5" value="change the &quot;label&quot; value in &quot;datamaker.py&quot;" style="whiteSpace=wrap;html=1;" vertex="1" parent="WIyWlLk6GJQsqaUBKTNV-1">
          <mxGeometry x="70" y="177.5" width="120" height="60" as="geometry" />
        </mxCell>
        <mxCell id="JfLIkyEiIRJ4gB4TQndz-18" style="edgeStyle=orthogonalEdgeStyle;rounded=0;orthogonalLoop=1;jettySize=auto;html=1;exitX=0.5;exitY=1;exitDx=0;exitDy=0;entryX=0.5;entryY=0;entryDx=0;entryDy=0;" edge="1" parent="WIyWlLk6GJQsqaUBKTNV-1" source="JfLIkyEiIRJ4gB4TQndz-8" target="JfLIkyEiIRJ4gB4TQndz-11">
          <mxGeometry relative="1" as="geometry" />
        </mxCell>
        <mxCell id="JfLIkyEiIRJ4gB4TQndz-8" value="run &quot;datamaker.py&quot;" style="whiteSpace=wrap;html=1;" vertex="1" parent="WIyWlLk6GJQsqaUBKTNV-1">
          <mxGeometry x="70" y="257.5" width="120" height="30" as="geometry" />
        </mxCell>
        <mxCell id="JfLIkyEiIRJ4gB4TQndz-19" style="edgeStyle=orthogonalEdgeStyle;rounded=0;orthogonalLoop=1;jettySize=auto;html=1;exitX=0.5;exitY=1;exitDx=0;exitDy=0;entryX=0.5;entryY=0;entryDx=0;entryDy=0;" edge="1" parent="WIyWlLk6GJQsqaUBKTNV-1" source="JfLIkyEiIRJ4gB4TQndz-11" target="JfLIkyEiIRJ4gB4TQndz-12">
          <mxGeometry relative="1" as="geometry" />
        </mxCell>
        <mxCell id="JfLIkyEiIRJ4gB4TQndz-11" value="press Space while u want to cap this frame as a datapoint" style="whiteSpace=wrap;html=1;" vertex="1" parent="WIyWlLk6GJQsqaUBKTNV-1">
          <mxGeometry x="70" y="307.5" width="120" height="80" as="geometry" />
        </mxCell>
        <mxCell id="JfLIkyEiIRJ4gB4TQndz-14" style="edgeStyle=orthogonalEdgeStyle;rounded=0;orthogonalLoop=1;jettySize=auto;html=1;exitX=1;exitY=0.5;exitDx=0;exitDy=0;entryX=1;entryY=0.5;entryDx=0;entryDy=0;" edge="1" parent="WIyWlLk6GJQsqaUBKTNV-1" source="JfLIkyEiIRJ4gB4TQndz-12" target="JfLIkyEiIRJ4gB4TQndz-11">
          <mxGeometry relative="1" as="geometry" />
        </mxCell>
        <mxCell id="JfLIkyEiIRJ4gB4TQndz-15" value="No" style="edgeLabel;html=1;align=center;verticalAlign=middle;resizable=0;points=[];" vertex="1" connectable="0" parent="JfLIkyEiIRJ4gB4TQndz-14">
          <mxGeometry x="0.1017" y="-2" relative="1" as="geometry">
            <mxPoint as="offset" />
          </mxGeometry>
        </mxCell>
        <mxCell id="JfLIkyEiIRJ4gB4TQndz-22" style="edgeStyle=orthogonalEdgeStyle;rounded=0;orthogonalLoop=1;jettySize=auto;html=1;exitX=0.5;exitY=1;exitDx=0;exitDy=0;entryX=0.5;entryY=0;entryDx=0;entryDy=0;" edge="1" parent="WIyWlLk6GJQsqaUBKTNV-1" source="JfLIkyEiIRJ4gB4TQndz-12" target="JfLIkyEiIRJ4gB4TQndz-21">
          <mxGeometry relative="1" as="geometry" />
        </mxCell>
        <mxCell id="JfLIkyEiIRJ4gB4TQndz-12" value="Enough?" style="rhombus;whiteSpace=wrap;html=1;" vertex="1" parent="WIyWlLk6GJQsqaUBKTNV-1">
          <mxGeometry x="70" y="407.5" width="120" height="40" as="geometry" />
        </mxCell>
        <mxCell id="JfLIkyEiIRJ4gB4TQndz-13" value="&lt;span style=&quot;font-size: 17px;&quot;&gt;How to&amp;nbsp;&lt;/span&gt;&lt;span style=&quot;font-size: 17px;&quot;&gt;create a labeled dataset?&lt;/span&gt;" style="text;html=1;resizable=0;autosize=1;align=center;verticalAlign=middle;points=[];fillColor=none;strokeColor=none;rounded=0;fontSize=17;" vertex="1" parent="WIyWlLk6GJQsqaUBKTNV-1">
          <mxGeometry x="10" y="10" width="270" height="30" as="geometry" />
        </mxCell>
        <mxCell id="JfLIkyEiIRJ4gB4TQndz-23" style="edgeStyle=orthogonalEdgeStyle;rounded=0;orthogonalLoop=1;jettySize=auto;html=1;exitX=0.5;exitY=1;exitDx=0;exitDy=0;entryX=0.5;entryY=0;entryDx=0;entryDy=0;" edge="1" parent="WIyWlLk6GJQsqaUBKTNV-1" source="JfLIkyEiIRJ4gB4TQndz-21" target="WIyWlLk6GJQsqaUBKTNV-11">
          <mxGeometry relative="1" as="geometry" />
        </mxCell>
        <mxCell id="JfLIkyEiIRJ4gB4TQndz-21" value="press Esc to exit()" style="whiteSpace=wrap;html=1;" vertex="1" parent="WIyWlLk6GJQsqaUBKTNV-1">
          <mxGeometry x="70" y="467.5" width="120" height="30" as="geometry" />
        </mxCell>
        <mxCell id="JfLIkyEiIRJ4gB4TQndz-43" value="Start" style="rounded=1;whiteSpace=wrap;html=1;fontSize=12;glass=0;strokeWidth=1;shadow=0;" vertex="1" parent="WIyWlLk6GJQsqaUBKTNV-1">
          <mxGeometry x="350" y="52.5" width="120" height="25" as="geometry" />
        </mxCell>
        <mxCell id="JfLIkyEiIRJ4gB4TQndz-57" value="&lt;span style=&quot;font-size: 17px;&quot;&gt;How to&amp;nbsp;&lt;/span&gt;&lt;span style=&quot;font-size: 17px;&quot;&gt;process datasets?&lt;/span&gt;" style="text;html=1;resizable=0;autosize=1;align=center;verticalAlign=middle;points=[];fillColor=none;strokeColor=none;rounded=0;fontSize=17;" vertex="1" parent="WIyWlLk6GJQsqaUBKTNV-1">
          <mxGeometry x="315" y="10" width="220" height="30" as="geometry" />
        </mxCell>
      </root>
    </mxGraphModel>
  </diagram>
</mxfile>
